<?xml version="1.0" encoding="UTF-8" standalone="no"?>
<svg
   viewBox="0 0 16 16"
   xml:space="preserve"
   version="1.1"
   id="svg672"
   sodipodi:docname="wmetasb.svg"
   width="16"
   height="16"
   inkscape:version="1.2.1 (9c6d41e410, 2022-07-14)"
   xmlns:inkscape="http://www.inkscape.org/namespaces/inkscape"
   xmlns:sodipodi="http://sodipodi.sourceforge.net/DTD/sodipodi-0.dtd"
   xmlns="http://www.w3.org/2000/svg"
   xmlns:svg="http://www.w3.org/2000/svg"><defs
   id="defs676" /><sodipodi:namedview
   id="namedview674"
   pagecolor="#ffffff"
   bordercolor="#000000"
   borderopacity="0.25"
   inkscape:showpageshadow="2"
   inkscape:pageopacity="0.0"
   inkscape:pagecheckerboard="0"
   inkscape:deskcolor="#d1d1d1"
   showgrid="false"
   inkscape:zoom="43.85"
   inkscape:cx="9.9885975"
   inkscape:cy="9.9885975"
   inkscape:window-width="1920"
   inkscape:window-height="1057"
   inkscape:window-x="-8"
   inkscape:window-y="-8"
   inkscape:window-maximized="1"
   inkscape:current-layer="svg672" />
    <g
   fill="#ffffff"
   id="g670"
   transform="translate(-2.0001291,-2)">
        <path
   fill="#ffffff"
   d="m 220.5,536 a 0.5,0.5 0 0 0 -0.5,0.5 v 9.64 a 1.837,2.622 64.988 0 0 -1.982,0.073 1.837,2.622 64.988 0 0 -1.971,2.685 1.837,2.622 64.988 0 0 2.935,0.89 1.837,2.622 64.988 0 0 2.01,-2.19 A 0.5,0.5 0 0 0 221,547.5 V 538 h 8 v 7.14 a 1.837,2.622 64.988 0 0 -1.982,0.073 1.837,2.622 64.988 0 0 -1.971,2.685 1.837,2.622 64.988 0 0 2.935,0.89 1.837,2.622 64.988 0 0 2.01,-2.19 A 0.5,0.5 0 0 0 230,546.5 v -10 a 0.5,0.5 0 0 0 -0.5,-0.5 z"
   transform="translate(-213,-533)"
   id="path668" />
    </g>
</svg>
